<svg xmlns="http://www.w3.org/2000/svg" version="1.1" xmlns:xlink="http://www.w3.org/1999/xlink" xmlns:svgjs="http://svgjs.dev/svgjs" width="1000" height="1000" viewBox="0 0 1000 1000"><rect width="1000" height="1000" fill="#c53683"></rect><g transform="matrix(0.7,0,0,0.7,149.5757646591473,413.21555789019334)"><svg viewBox="0 0 396 98" data-background-color="#c53683" preserveAspectRatio="xMidYMid meet" height="247" width="1000" xmlns="http://www.w3.org/2000/svg" xmlns:xlink="http://www.w3.org/1999/xlink"><g id="tight-bounds" transform="matrix(1,0,0,1,0.23999599282524287,0.18956232944509566)"><svg viewBox="0 0 395.52 97.62086423470214" height="97.62086423470214" width="395.52"><g><svg viewBox="0 0 605.917543241012 149.5504506122449" height="97.62086423470214" width="395.52"><g><rect width="9.758765537103674" height="129.85567346938774" x="175.09227106227573" y="9.847388571428581" fill="#ffffff" opacity="1" stroke-width="0" stroke="transparent" fill-opacity="1" class="rect-o-0" data-fill-palette-color="primary" rx="1%" id="o-0" data-palette-color="#ffffff"></rect></g><g transform="matrix(1,0,0,1,210.39754324101204,20.668694693877555)"><svg viewBox="0 0 395.52 108.21306122448979" height="108.21306122448979" width="395.52"><g id="textblocktransform"><svg viewBox="0 0 395.52 108.21306122448979" height="108.21306122448979" width="395.52" id="textblock"><g><svg viewBox="0 0 395.52 108.21306122448979" height="108.21306122448979" width="395.52"><g transform="matrix(1,0,0,1,0,0)"><svg width="395.52" viewBox="1.600000023841858 -44.400001525878906 235.17999267578125 64.35000610351562" height="108.21306122448979" data-palette-color="#ffffff"><path d="M23.45 0.5Q22.6 0.5 22.15-0.38 21.7-1.25 21.7-2.85L21.7-2.85Q21.7-3.95 21.8-4.6L21.8-4.6 23.6-16.75 11.65-16.75 9.75-5.5Q9.5-4.2 8.8-3.4L8.8-3.4 8.8-3.35Q9.05-3.25 9.55-3.08 10.05-2.9 10.55-2.9L10.55-2.9Q11.15-2.9 11.78-3.18 12.4-3.45 12.6-3.45L12.6-3.45Q12.9-3.45 12.9-3.1L12.9-3.1Q12.9-2.65 12.3-2.05L12.3-2.05Q10.4 0 9.25 0L9.25 0Q8.8 0 7.6-0.4L7.6-0.4Q6-0.85 5.5-0.85L5.5-0.85Q4.75-0.85 3.95-0.43 3.15 0 3 0L3 0Q2.75 0 2.75-0.5L2.75-0.5Q2.75-1.05 3-1.5 3.25-1.95 3.85-2.55L3.85-2.55Q5.05-3.65 5.4-4.1 5.75-4.55 5.98-5.4 6.2-6.25 6.55-8.6L6.55-8.6 10.25-31.5Q10-31.5 8.9-31.6L8.9-31.6Q8.6-31.65 8.1-31.7 7.6-31.75 6.9-31.75L6.9-31.75Q4-31.75 2.65-29.9L2.65-29.9Q2.55-29.75 2.3-29.38 2.05-29 1.85-29L1.85-29Q1.6-29 1.6-29.45L1.6-29.45Q1.6-29.95 1.75-30.3L1.75-30.3Q2.3-32.4 3.93-33.55 5.55-34.7 7.95-34.7L7.95-34.7 9.6-34.65Q11-34.55 11.85-34.55L11.85-34.55Q12.75-34.55 13.75-34.65L13.75-34.65 14.8-34.7Q14.1-32.4 13.83-30.7 13.55-29 13.5-28.65L13.5-28.65 12.15-20.1 24.2-20.1 25.55-28.15Q26.45-33.55 28.18-36.9 29.9-40.25 32.73-41.95 35.55-43.65 39.85-43.95L39.85-43.95Q40.65-44 41.5-44.2L41.5-44.2Q41.95-44.4 42.1-44.4L42.1-44.4Q42.35-44.4 42.35-44.1L42.35-44.1Q42.35-43.5 41.65-42.78 40.95-42.05 39.25-41.8L39.25-41.8Q36.1-41.4 34.25-40.13 32.4-38.85 31.3-36.23 30.2-33.6 29.45-28.9L29.45-28.9 25.9-6Q25.75-5.1 25.75-4.65L25.75-4.65Q25.75-4.15 25.93-3.98 26.1-3.8 26.45-3.8L26.45-3.8Q27.05-3.8 27.6-4.13 28.15-4.45 28.85-5.05L28.85-5.05Q29.5-5.6 29.7-5.6L29.7-5.6Q30-5.6 30-5.1L30-5.1Q30-4.2 28.78-2.85 27.55-1.5 25.95-0.5 24.35 0.5 23.45 0.5L23.45 0.5ZM37.85 0.5Q35.75 0.5 34.67-1.13 33.6-2.75 33.6-5.65L33.6-5.65Q33.6-9.7 35.55-13.95 37.5-18.2 40.37-21 43.25-23.8 45.85-23.8L45.85-23.8Q47.8-23.8 48.85-22.08 49.9-20.35 49.9-17.55L49.9-17.55Q49.9-13.8 48.07-9.55 46.25-5.3 43.45-2.4 40.65 0.5 37.85 0.5L37.85 0.5ZM40.3-2.8Q41.95-2.8 43.3-4.48 44.65-6.15 45.45-8.93 46.25-11.7 46.25-14.8L46.25-14.8Q46.25-20.5 43.3-20.5L43.3-20.5Q41.45-20.5 40.07-18.5 38.7-16.5 37.97-13.63 37.25-10.75 37.25-8.25L37.25-8.25Q37.25-5.85 37.97-4.33 38.7-2.8 40.3-2.8L40.3-2.8ZM45 19.95Q42.3 19.95 40.15 18.53 38 17.1 37.15 14.55L37.15 14.55Q37.05 14.15 37.05 13.9L37.05 13.9Q37.05 12.95 37.72 12.08 38.4 11.2 39.25 10.85L39.25 10.85 39.65 10.75Q39.84 10.75 39.9 11 39.95 11.25 39.95 11.3L39.95 11.3Q40.34 14.45 41.97 16.1 43.59 17.75 46.3 17.75L46.3 17.75Q49.4 17.75 51.3 14.83 53.2 11.9 54.15 5.65L54.15 5.65 57.65-16.85Q57.95-18.65 57.95-19.4L57.95-19.4Q57.95-20.15 57.55-20.15L57.55-20.15Q57.09-20.15 56.4-19.4 55.7-18.65 55.09-17.65L55.09-17.65Q54.9-17.35 54.65-16.93 54.4-16.5 54.25-16.38 54.09-16.25 53.95-16.25L53.95-16.25Q53.65-16.25 53.65-16.8L53.65-16.8Q53.65-17.7 54.75-19.43 55.84-21.15 57.32-22.48 58.8-23.8 59.9-23.8L59.9-23.8Q60.8-23.8 61.22-23.13 61.65-22.45 61.55-21.35L61.55-21.35Q61.4-19.85 60.9-16.85L60.9-16.85Q60.59-15.15 60.5-14.5L60.5-14.5 60.55-14.5Q62.5-18.05 65.22-20.93 67.95-23.8 69.95-23.8L69.95-23.8Q71.4-23.8 71.95-22.35 72.5-20.9 72.5-17.75L72.5-17.75Q72.5-13.45 70.55-9.18 68.59-4.9 65.52-2.2 62.45 0.5 59.2 0.5L59.2 0.5Q58.75 0.5 58.34 0.35L58.34 0.35 57.5 5.35Q56.75 9.65 54.97 12.98 53.2 16.3 50.62 18.13 48.05 19.95 45 19.95L45 19.95ZM62.09-2.5Q64-2.5 65.55-4.78 67.09-7.05 67.97-10.38 68.84-13.7 68.84-16.6L68.84-16.6Q68.84-18.25 68.59-18.98 68.34-19.7 67.8-19.7L67.8-19.7Q66.45-19.7 64.59-17.6 62.75-15.5 61.25-12.4 59.75-9.3 59.34-6.5L59.34-6.5 58.84-3.4Q59.65-2.9 60.4-2.7 61.15-2.5 62.09-2.5L62.09-2.5ZM80.09 0.5Q77.84 0.5 76.52-1.23 75.19-2.95 75.19-6L75.19-6Q75.19-9.7 76.97-13.93 78.74-18.15 81.54-20.98 84.34-23.8 87.19-23.8L87.19-23.8Q89.79-23.8 89.79-20.65L89.79-20.65Q89.79-18.1 88.29-15.65 86.79-13.2 84.27-11.33 81.74-9.45 78.74-8.45L78.74-8.45Q78.74-5.75 79.62-4.55 80.49-3.35 82.19-3.35L82.19-3.35Q83.99-3.35 85.49-4.5 86.99-5.65 88.04-7.65L88.04-7.65Q88.19-7.95 88.34-8.15 88.49-8.35 88.74-8.35L88.74-8.35Q89.14-8.35 89.14-7.75L89.14-7.75Q89.14-6.4 87.79-4.4 86.44-2.4 84.34-0.95 82.24 0.5 80.09 0.5L80.09 0.5ZM80.34-11.1Q81.64-11.1 83.12-12.03 84.59-12.95 85.59-14.55 86.59-16.15 86.59-18.15L86.59-18.15Q86.59-20.5 84.94-20.5L84.94-20.5Q83.59-20.5 82.37-19.05 81.14-17.6 80.32-15.45 79.49-13.3 79.19-11.3L79.19-11.3Q79.49-11.1 80.34-11.1L80.34-11.1ZM117.59 0.5Q113.24 0.5 110.89-2.68 108.54-5.85 108.54-12.15L108.54-12.15Q108.54-19.25 111.31-24.48 114.09-29.7 118.26-32.45 122.44-35.2 126.44-35.2L126.44-35.2Q129.04-35.2 131.01-34.18 132.99-33.15 132.99-31.1L132.99-31.1Q132.99-29.65 131.84-27.9L131.84-27.9Q131.54-27.5 131.34-27.33 131.14-27.15 130.84-27.15L130.84-27.15Q130.49-27.15 130.34-27.48 130.19-27.8 130.14-28.25 130.09-28.7 130.04-28.9L130.04-28.9Q129.74-30.6 128.46-31.58 127.19-32.55 124.89-32.55L124.89-32.55Q120.84-32.55 118.11-29.48 115.39-26.4 114.06-21.9 112.74-17.4 112.74-13.15L112.74-13.15Q112.74-8.3 114.54-5.65 116.34-3 119.64-3L119.64-3Q122.34-3 124.71-4.75 127.09-6.5 128.69-9.75L128.69-9.75Q128.99-10.3 129.29-10.3L129.29-10.3Q129.54-10.3 129.54-9.75L129.54-9.75Q129.54-9.45 129.49-9.15 129.44-8.85 129.39-8.7L129.39-8.7Q128.64-6.05 126.89-3.95 125.14-1.85 122.69-0.68 120.24 0.5 117.59 0.5L117.59 0.5ZM135.74 0.5Q133.19 0.5 133.19-4.35L133.19-4.35Q133.19-9 135.21-13.53 137.24-18.05 140.69-20.93 144.14-23.8 148.14-23.8L148.14-23.8Q150.19-23.8 151.69-23.15L151.69-23.15Q151.04-20.6 150.78-19.4L150.78-19.4 149.74-14Q148.34-7.6 148.03-5.15L148.03-5.15Q147.99-4.8 147.99-4.3L147.99-4.3Q147.99-3.2 148.64-3.2L148.64-3.2Q149.44-3.2 150.14-4.23 150.84-5.25 151.74-7.15L151.74-7.15Q151.79-7.2 151.91-7.45 152.04-7.7 152.24-7.7L152.24-7.7Q152.54-7.7 152.54-7.1L152.54-7.1 152.44-6.3Q152.09-4.65 151.01-3.05 149.94-1.45 148.61-0.48 147.28 0.5 146.24 0.5L146.24 0.5Q144.49 0.5 144.49-2.35L144.49-2.35Q144.49-3.45 144.74-4.6L144.74-4.6 145.59-8.95 145.53-8.95Q143.14-4.75 140.41-2.13 137.69 0.5 135.74 0.5L135.74 0.5ZM138.09-3.6Q139.49-3.6 141.31-5.78 143.14-7.95 144.71-11.1 146.28-14.25 146.89-16.75L146.89-16.75 147.69-19.95Q146.19-20.95 144.53-20.95L144.53-20.95Q142.39-20.95 140.61-18.48 138.84-16 137.84-12.48 136.84-8.95 136.84-6.1L136.84-6.1Q136.84-4.85 137.11-4.23 137.39-3.6 138.09-3.6L138.09-3.6ZM157.13 0.5Q156.68 0.5 156.68 0.2L156.68 0.2Q156.68 0 156.91-0.68 157.13-1.35 157.53-3L157.53-3Q158.53-7.15 159.93-16.85L159.93-16.85Q160.23-18.75 160.23-19.5L160.23-19.5Q160.23-20.15 159.93-20.15L159.93-20.15Q159.08-20.15 157.38-17.15L157.38-17.15Q157.13-16.7 156.93-16.38 156.73-16.05 156.61-15.9 156.48-15.75 156.33-15.75L156.33-15.75Q155.93-15.75 155.93-16.25L155.93-16.25Q155.93-17.25 157.03-19.1 158.13-20.95 159.63-22.38 161.13-23.8 162.33-23.8L162.33-23.8Q163.13-23.8 163.48-23.1 163.83-22.4 163.83-21.35L163.83-21.35Q163.83-19.7 163.03-14.9L163.03-14.9 163.08-14.9Q165.38-18.95 168.13-21.38 170.88-23.8 172.88-23.8L172.88-23.8Q174.98-23.8 174.98-20.85L174.98-20.85Q174.98-19.75 174.53-17.15L174.53-17.15 173.38-11.15Q172.13-4.8 172.13-3.95L172.13-3.95Q172.13-3.6 172.31-3.33 172.48-3.05 172.88-3.05L172.88-3.05Q174.23-3.05 175.98-7.15L175.98-7.15Q176.13-7.7 176.48-7.7L176.48-7.7Q176.78-7.7 176.78-7.1L176.78-7.1Q176.78-6.65 176.73-6.3L176.73-6.3Q176.38-4.5 175.28-2.93 174.18-1.35 172.83-0.43 171.48 0.5 170.38 0.5L170.38 0.5Q169.33 0.5 168.96-0.38 168.58-1.25 168.58-2.3L168.58-2.3Q168.58-4.55 169.83-10.4L169.83-10.4Q171.03-16.1 171.13-18.3L171.13-18.3Q171.18-19.2 171.01-19.58 170.83-19.95 170.18-19.95L170.18-19.95Q168.63-19.95 166.86-17.9 165.08-15.85 163.68-12.88 162.28-9.9 161.83-7.45L161.83-7.45 161.03-3.1Q160.73-1.8 159.43-0.65 158.13 0.5 157.13 0.5L157.13 0.5ZM186.18 0.5Q185.73 0.5 185.56 0.28 185.38 0.05 185.31-0.7 185.23-1.45 185.23-2.5L185.23-2.5Q185.23-6.05 184.88-10.6L184.88-10.6Q184.43-15.75 183.81-17.85 183.18-19.95 182.23-19.95L182.23-19.95Q181.58-19.95 181.28-19.35 180.98-18.75 180.48-17.15L180.48-17.15Q180.28-16.3 179.88-16.3L179.88-16.3Q179.48-16.3 179.48-17.05L179.48-17.05Q179.48-18.3 180.06-19.9 180.63-21.5 181.66-22.65 182.68-23.8 183.98-23.8L183.98-23.8Q186.28-23.8 187.21-20.55 188.13-17.3 188.53-12.05L188.53-12.05Q188.78-8.75 188.86-7.4 188.93-6.05 188.98-5.7L188.98-5.7Q189.03-4.85 189.43-4.85L189.43-4.85Q190.38-4.85 191.88-6.98 193.38-9.1 194.51-11.93 195.63-14.75 195.63-16.75L195.63-16.75Q195.63-17.65 195.41-18.2 195.18-18.75 194.78-19.3 194.38-19.85 194.38-20.15L194.38-20.15Q194.38-20.9 195.58-22.35 196.78-23.8 197.43-23.8L197.43-23.8Q197.93-23.8 198.38-22.93 198.83-22.05 198.83-20.6L198.83-20.6Q198.83-17.3 196.58-12.23 194.33-7.15 191.33-3.33 188.33 0.5 186.18 0.5L186.18 0.5ZM202.98 0.5Q200.43 0.5 200.43-4.35L200.43-4.35Q200.43-9 202.45-13.53 204.48-18.05 207.93-20.93 211.38-23.8 215.38-23.8L215.38-23.8Q217.43-23.8 218.93-23.15L218.93-23.15Q218.28-20.6 218.03-19.4L218.03-19.4 216.98-14Q215.58-7.6 215.28-5.15L215.28-5.15Q215.23-4.8 215.23-4.3L215.23-4.3Q215.23-3.2 215.88-3.2L215.88-3.2Q216.68-3.2 217.38-4.23 218.08-5.25 218.98-7.15L218.98-7.15Q219.03-7.2 219.15-7.45 219.28-7.7 219.48-7.7L219.48-7.7Q219.78-7.7 219.78-7.1L219.78-7.1 219.68-6.3Q219.33-4.65 218.25-3.05 217.18-1.45 215.85-0.48 214.53 0.5 213.48 0.5L213.48 0.5Q211.73 0.5 211.73-2.35L211.73-2.35Q211.73-3.45 211.98-4.6L211.98-4.6 212.83-8.95 212.78-8.95Q210.38-4.75 207.65-2.13 204.93 0.5 202.98 0.5L202.98 0.5ZM205.33-3.6Q206.73-3.6 208.55-5.78 210.38-7.95 211.95-11.1 213.53-14.25 214.13-16.75L214.13-16.75 214.93-19.95Q213.43-20.95 211.78-20.95L211.78-20.95Q209.63-20.95 207.85-18.48 206.08-16 205.08-12.48 204.08-8.95 204.08-6.1L204.08-6.1Q204.08-4.85 204.35-4.23 204.63-3.6 205.33-3.6L205.33-3.6ZM225.53 0.5Q223.98 0.5 222.88-0.35 221.78-1.2 221.43-2.6L221.43-2.6Q221.33-3 221.75-3.88 222.18-4.75 222.88-5.6L222.88-5.6Q223.28-6.05 223.53-6.05L223.53-6.05Q223.78-6.05 223.93-5.65L223.93-5.65Q225.43-2.15 228.08-2.15L228.08-2.15Q229.43-2.15 230.2-2.98 230.98-3.8 230.98-5.2L230.98-5.2Q230.98-7.1 228.83-10.1L228.83-10.1 227.78-11.6Q226.58-13.3 226.1-14.4 225.63-15.5 225.63-16.75L225.63-16.75Q225.63-18.75 226.7-20.35 227.78-21.95 229.53-22.88 231.28-23.8 233.18-23.8L233.18-23.8Q236.78-23.8 236.78-21.35L236.78-21.35Q236.78-20.45 236.13-19.55L236.13-19.55Q235.78-18.95 235.53-18.95L235.53-18.95Q235.23-18.95 234.98-19.55L234.98-19.55Q234.43-20.5 233.65-20.93 232.88-21.35 231.68-21.35L231.68-21.35Q230.28-21.35 229.43-20.6 228.58-19.85 228.58-18.7L228.58-18.7Q228.58-18.05 229-17.23 229.43-16.4 230.63-14.7L230.63-14.7 231.68-13.25Q233.08-11.4 233.63-10.08 234.18-8.75 234.18-7.3L234.18-7.3Q234.18-5.45 232.98-3.63 231.78-1.8 229.78-0.65 227.78 0.5 225.53 0.5L225.53 0.5Z" opacity="1" transform="matrix(1,0,0,1,0,0)" fill="#ffffff" class="wordmark-text-0" data-fill-palette-color="primary" id="text-0"></path></svg></g></svg></g></svg></g></svg></g><g><svg viewBox="0 0 149.54576442064308 149.5504506122449" height="149.5504506122449" width="149.54576442064308"><g><svg xmlns="http://www.w3.org/2000/svg" xmlns:xlink="http://www.w3.org/1999/xlink" version="1.1" x="0" y="0" viewBox="18.350997924804688 18.347999572753906 63.30200958251953 63.303993225097656" enable-background="new 0 0 100 100" xml:space="preserve" height="149.5504506122449" width="149.54576442064308" class="icon-icon-0" data-fill-palette-color="accent" id="icon-0"><g fill="#ffffff" data-fill-palette-color="accent"><path fill="#ffffff" d="M80.951 48.597c-4.329-3.261-9.009-4.911-13.907-4.911-0.107 0-0.213 0-0.32 0.002-0.104-0.002-0.212-0.002-0.318-0.002-0.431 0-0.857 0.029-1.283 0.054 0.399-0.354 0.792-0.717 1.168-1.103 3.598-3.496 5.814-8.047 6.587-13.531 0.078-0.548-0.105-1.098-0.496-1.487-0.391-0.39-0.941-0.573-1.488-0.497-5.482 0.773-10.035 2.99-13.529 6.589-0.384 0.373-0.744 0.764-1.097 1.161 0.032-0.53 0.054-1.062 0.046-1.597 0.073-5.016-1.579-9.801-4.91-14.227-0.331-0.44-0.851-0.7-1.401-0.7-0.552 0-1.072 0.26-1.404 0.7-3.33 4.425-4.981 9.211-4.909 14.227-0.008 0.535 0.014 1.066 0.045 1.597-0.352-0.396-0.713-0.788-1.097-1.161-3.493-3.599-8.045-5.816-13.529-6.589-0.549-0.076-1.098 0.107-1.487 0.497-0.39 0.391-0.574 0.941-0.498 1.487 0.774 5.484 2.99 10.036 6.588 13.531 0.375 0.386 0.769 0.748 1.168 1.103-0.427-0.024-0.854-0.054-1.284-0.054-0.107 0-0.213 0-0.319 0.002-0.106-0.002-0.212-0.002-0.321-0.002-4.898 0-9.577 1.65-13.905 4.911-0.44 0.332-0.7 0.851-0.7 1.402 0 0.553 0.259 1.071 0.7 1.403 4.329 3.26 9.008 4.91 13.908 4.91 0.106 0 0.212 0 0.318-0.002 0.106 0.002 0.223-0.006 0.318 0.002 0.432 0 0.859-0.029 1.288-0.053-0.399 0.354-0.793 0.717-1.168 1.104-3.599 3.494-5.816 8.047-6.59 13.529-0.077 0.547 0.107 1.096 0.498 1.486 0.331 0.332 0.779 0.516 1.242 0.516 0.081 0 0.163-0.006 0.246-0.018 5.484-0.773 10.036-2.99 13.529-6.588 0.384-0.373 0.745-0.766 1.097-1.162-0.031 0.531-0.053 1.062-0.045 1.598-0.073 5.016 1.579 9.801 4.909 14.227 0.332 0.441 0.853 0.701 1.404 0.701 0.551 0 1.07-0.26 1.402-0.701 3.33-4.426 4.982-9.211 4.909-14.227 0.008-0.535-0.014-1.066-0.046-1.596 0.353 0.396 0.712 0.789 1.097 1.16 3.494 3.598 8.046 5.814 13.529 6.588 0.082 0.012 0.165 0.018 0.246 0.018 0.461 0 0.91-0.184 1.242-0.516 0.391-0.391 0.574-0.939 0.496-1.486-0.772-5.484-2.99-10.037-6.588-13.529-0.375-0.387-0.77-0.75-1.169-1.104 0.428 0.023 0.855 0.053 1.286 0.053 0.107 0 0.213 0 0.317-0.002 0.106 0.002 0.213 0.002 0.318 0.002 0.001 0 0 0 0.001 0 4.899 0 9.579-1.65 13.908-4.91 0.44-0.332 0.7-0.85 0.7-1.403C81.651 49.448 81.392 48.929 80.951 48.597zM48.784 49.509l1.217-1.215 1.214 1.215-1.214 1.215L48.784 49.509zM59.828 36.215c0.013-0.014 0.026-0.027 0.039-0.04 2.41-2.489 5.449-4.198 9.058-5.099-0.901 3.607-2.61 6.646-5.099 9.057-0.014 0.012-0.027 0.027-0.04 0.04-2.411 2.489-5.449 4.198-9.057 5.099C55.63 41.665 57.339 38.624 59.828 36.215zM47.2 33.247c-0.054-3.464 0.886-6.822 2.801-10.009 1.914 3.187 2.854 6.545 2.799 10.008 0 0.02 0 0.039 0 0.058 0.056 3.463-0.885 6.82-2.799 10.008-1.915-3.188-2.854-6.544-2.801-10.009C47.2 33.285 47.2 33.266 47.2 33.247zM31.077 31.076c3.608 0.9 6.647 2.609 9.056 5.099 0.014 0.013 0.027 0.026 0.04 0.04 2.489 2.409 4.199 5.448 5.098 9.057-3.606-0.901-6.646-2.61-9.057-5.101-0.013-0.013-0.027-0.026-0.039-0.039C33.686 37.722 31.977 34.684 31.077 31.076zM33.303 52.799c-0.009 0-0.018 0-0.027 0s-0.019 0-0.029 0c-0.096 0.002-0.192 0.004-0.289 0.004-3.361 0-6.62-0.941-9.72-2.803 3.099-1.861 6.358-2.801 9.717-2.801 0.098 0 0.195 0 0.292 0.002 0.019 0.001 0.038 0.001 0.056 0 0.098-0.002 0.195-0.002 0.292-0.002 3.359 0 6.619 0.939 9.717 2.801-3.099 1.862-6.359 2.803-9.719 2.803C33.496 52.803 33.399 52.801 33.303 52.799zM40.174 63.785c-0.014 0.014-0.027 0.025-0.041 0.039-2.409 2.488-5.448 4.197-9.056 5.1 0.899-3.607 2.608-6.646 5.098-9.059 0.013-0.012 0.026-0.025 0.041-0.039 2.409-2.488 5.448-4.197 9.056-5.098C44.371 58.336 42.662 61.375 40.174 63.785zM52.8 66.752c0.056 3.465-0.885 6.822-2.799 10.01-1.915-3.188-2.854-6.545-2.801-10.01 0-0.02 0-0.037 0-0.055-0.054-3.465 0.886-6.822 2.801-10.01 1.914 3.188 2.854 6.545 2.799 10.01C52.8 66.715 52.8 66.732 52.8 66.752zM68.924 68.924c-3.607-0.902-6.646-2.611-9.058-5.098-0.013-0.014-0.025-0.027-0.038-0.041-2.489-2.41-4.198-5.449-5.099-9.057 3.607 0.9 6.646 2.609 9.056 5.098 0.014 0.014 0.026 0.027 0.04 0.039C66.314 62.277 68.022 65.314 68.924 68.924zM67.042 52.803c-0.096 0-0.192-0.002-0.289-0.004-0.01 0-0.02 0-0.029 0-0.009 0-0.018 0-0.028 0-0.096 0.002-0.192 0.004-0.289 0.004-3.361 0-6.62-0.941-9.718-2.803 3.098-1.861 6.356-2.801 9.717-2.801 0.097 0 0.194 0 0.29 0.002 0.02 0.001 0.039 0.001 0.058 0 0.097-0.002 0.194-0.002 0.291-0.002 3.36 0 6.62 0.939 9.718 2.801C73.664 51.861 70.404 52.803 67.042 52.803z" data-fill-palette-color="accent"></path><circle fill="#ffffff" cx="66.725" cy="50" r="2.3" data-fill-palette-color="accent"></circle><circle fill="#ffffff" cx="33.276" cy="50" r="2.3" data-fill-palette-color="accent"></circle><circle fill="#ffffff" cx="50" cy="66.725" r="2.3" data-fill-palette-color="accent"></circle><circle fill="#ffffff" cx="50" cy="33.275" r="2.3" data-fill-palette-color="accent"></circle><circle fill="#ffffff" cx="61.827" cy="61.825" r="2.3" data-fill-palette-color="accent"></circle><circle fill="#ffffff" cx="38.174" cy="38.174" r="2.3" data-fill-palette-color="accent"></circle><circle fill="#ffffff" cx="38.174" cy="61.825" r="2.3" data-fill-palette-color="accent"></circle><circle fill="#ffffff" cx="61.827" cy="38.174" r="2.3" data-fill-palette-color="accent"></circle></g></svg></g></svg></g></svg></g><defs></defs></svg><rect width="395.52" height="97.62086423470214" fill="none" stroke="none" visibility="hidden"></rect></g></svg></g></svg>